Coordinates
version=1
nRows=28
nColumns=33
inDegrees=yes

Units are S.I. units (second, meters, Newtons, ...)
Angles are in degrees.

endheader
time	ground_thorax_rot_x	ground_thorax_rot_y	ground_thorax_rot_z	ground_thorax_tx	ground_thorax_ty	ground_thorax_tz	clav_prot_r	clav_elev_r	scapula_abduction_r	scapula_elevation_r	scapula_upward_rot_r	scapula_winging_r	shoulder_elv_r	plane_of_elev_r	axial_rot_r	elbow_flexion_r	pro_sup_r	wrist_flex_r	wrist_dev_r	clav_prot_l	clav_elev_l	scapula_abduction_l	scapula_elevation_l	scapula_upward_rot_l	scapula_winging_l	shoulder_elv_l	plane_of_elev_l	axial_rot_l	elbow_flexion_l	pro_sup_l	wrist_flex_l	wrist_dev_l	
2.1500	-30.628691	-31.012682	38.195702	-51.703234	780.809345	12.021551	9.542568	-45.000000	39.847953	-45.000000	-44.999200	-3334.925653	-2272.490400	149.903627	-126.666605	2529.678433	387.193056	17.604543	13.266289	15.876392	38.658690	-35.672115	-45.000000	-44.999977	2237.084689	-4613.853381	27.135064	-0.028111	2.585155	42.653414	9.906366	-20.988584	
2.1600	-30.976463	-30.664361	37.748160	-53.697217	781.883963	11.890128	9.564518	-45.000000	39.915056	-45.000000	-44.998567	-3335.008247	-2272.094780	149.648037	-127.305390	2529.886889	387.033467	17.701540	13.062797	15.983423	38.737250	-36.001153	-45.000000	-44.999958	2237.392346	-4613.602023	27.197378	0.043284	2.831810	42.209507	9.993826	-21.023464	
2.1700	-31.340858	-30.288917	37.266675	-55.769747	782.998413	11.762924	9.586181	-45.000000	39.975283	-45.000000	-44.997434	-3335.090991	-2271.692739	149.389711	-127.964781	2530.088007	386.872064	17.796350	12.849269	16.092945	38.809967	-36.339608	-45.000000	-44.999925	2237.700624	-4613.343633	27.266400	0.067286	3.094316	41.756866	10.072933	-21.060815	
2.1800	-31.682358	-29.929877	36.816152	-58.008091	784.193040	11.645452	9.608275	-45.000000	40.058885	-45.000000	-44.995399	-3335.204689	-2271.292675	149.146474	-128.626790	2530.284304	386.723401	17.919692	12.649417	16.184742	38.872465	-36.661128	-45.000000	-44.999866	2238.032234	-4613.090321	27.325000	0.066401	3.362953	41.237721	10.134822	-21.105878	
2.1900	-32.015420	-29.567209	36.366259	-60.427711	785.478522	11.537740	9.630832	-45.000000	40.154702	-45.000000	-44.991771	-3335.340298	-2270.888830	148.910706	-129.295908	2530.474347	386.579300	18.059518	12.455070	16.270995	38.918956	-36.975602	-45.000000	-44.999760	2238.375942	-4612.833398	27.368723	0.003999	3.650459	40.665655	10.173631	-21.156073	
2.2000	-32.342500	-29.193251	35.909770	-63.055327	786.869944	11.440497	9.654347	-45.000000	40.261337	-45.000000	-44.985224	-3335.500291	-2270.483746	148.680215	-129.958434	2530.653988	386.436418	18.213109	12.265180	16.354200	38.938742	-37.282634	-45.000000	-44.999571	2238.731764	-4612.571854	27.398883	-0.140190	3.961532	40.036692	10.185321	-21.210956	
2.2100	-32.672063	-28.797537	35.424589	-65.897033	788.372624	11.353055	9.677283	-45.000000	40.368701	-45.000000	-44.973632	-3335.675352	-2270.074533	148.446626	-130.606321	2530.822141	386.284684	18.372426	12.073081	16.437964	38.940335	-37.587117	-45.000000	-44.999231	2239.095297	-4612.301913	27.410395	-0.390085	4.300729	39.360654	10.164998	-21.268142	
2.2200	-33.010029	-28.369645	34.899042	-68.948924	789.986028	11.274220	9.697941	-45.000000	40.471314	-45.000000	-44.952486	-3335.861156	-2269.662249	148.209710	-131.214804	2530.980153	386.116097	18.530148	11.873426	16.525485	38.929484	-37.893260	-45.000000	-44.998622	2239.462426	-4612.021484	27.402275	-0.752913	4.672603	38.643949	10.109478	-21.324627	
2.2300	-33.353537	-27.909122	34.333156	-72.205252	791.706917	11.203054	9.715246	-45.000000	40.569712	-45.000000	-44.915674	-3336.055341	-2269.246502	147.971138	-131.764178	2531.127452	385.924414	18.683142	11.664654	16.612239	38.917093	-38.196669	-45.000000	-44.997533	2239.829053	-4611.729742	27.373788	-1.220837	5.069333	37.888276	10.019252	-21.377892	
2.2400	-33.698685	-27.414439	33.733135	-75.658735	793.529620	11.138750	9.729101	-45.000000	40.669953	-45.000000	-44.846755	-3336.262521	-2268.833635	147.741400	-132.228011	2531.265281	385.708964	18.829063	11.448105	16.694944	38.899243	-38.492479	-45.000000	-44.995579	2240.193154	-4611.427128	27.331569	-1.770113	5.483416	37.089126	9.898897	-21.425900	
2.2500	-34.041538	-26.888245	33.102252	-79.300113	795.445870	11.080569	9.739648	-45.000000	40.774208	-45.000000	-44.731616	-3336.481392	-2268.424767	147.526244	-132.597785	2531.392976	385.470023	18.964195	11.221638	16.768102	38.882303	-38.775027	-45.000000	-44.992088	2240.552011	-4611.113459	27.277472	-2.373705	5.905053	36.243882	9.756265	-21.468302	
2.2600	-34.385224	-26.321160	32.430870	-83.118903	797.444968	11.027618	9.743782	-45.000000	40.895302	-45.000000	-44.502160	-3336.719020	-2268.032294	147.348719	-132.853709	2531.516918	385.218765	19.088540	10.992560	16.834097	38.863068	-39.055722	-45.000000	-44.985806	2240.906048	-4610.794053	27.208944	-2.999442	6.335611	35.351502	9.589767	-21.502482	
2.2700	-34.726805	-25.713347	31.722012	-87.103368	799.513791	10.978780	9.744156	-45.000000	41.032770	-45.000000	-44.155919	-3336.974359	-2267.657631	147.208386	-132.994302	2531.628588	384.967670	19.197503	10.755092	16.884274	38.840305	-39.326780	-45.000000	-44.974631	2241.252596	-4610.471690	27.139590	-3.613917	6.756946	34.416011	9.416605	-21.532801	
2.2800	-35.068766	-25.065680	30.972056	-91.242419	801.637545	10.932859	9.741040	-45.000000	41.189184	-45.000000	-43.680948	-3337.244772	-2267.304782	147.113222	-133.021825	2531.737191	384.734276	19.292081	10.512442	16.920819	38.818001	-39.597116	-45.000000	-44.954401	2241.593157	-4610.153122	27.062626	-4.198724	7.166247	33.446344	9.235536	-21.558047	
2.2900	-35.403974	-24.395460	30.200697	-95.524829	803.799952	10.888597	9.742151	-45.000000	41.347502	-45.000000	-43.164301	-3337.518162	-2266.965642	147.038099	-132.960009	2531.832392	384.531504	19.363999	10.239913	16.921370	38.807284	-39.841328	-45.000000	-44.918756	2241.933170	-4609.840710	27.001664	-4.721290	7.541136	32.449796	9.084434	-21.593861	
2.3000	-35.741024	-23.704195	29.400310	-99.946763	805.986108	10.846158	9.747362	-45.000000	41.507074	-45.000000	-42.601855	-3337.785701	-2266.644167	146.989788	-132.814799	2531.925503	384.381816	19.416813	9.951887	16.904989	38.816569	-40.070940	-45.000000	-44.853248	2242.273452	-4609.540508	26.937803	-5.191227	7.889254	31.449735	8.940010	-21.630687	
2.3100	-36.071782	-23.008786	28.594092	-104.500938	808.180134	10.805285	9.765736	-45.000000	41.657378	-45.000000	-42.071746	-3338.039908	-2266.335923	146.947269	-132.598620	2532.006174	384.302867	19.445934	9.642608	16.866012	38.840538	-40.257582	-45.000000	-44.740534	2242.612884	-4609.253897	26.887728	-5.599074	8.190593	30.467701	8.821045	-21.675141	
2.3200	-36.393129	-22.339677	27.796919	-109.221319	810.379266	10.774141	9.815327	-45.000000	41.812376	-45.000000	-41.623987	-3338.264295	-2266.043390	146.913687	-132.336472	2532.090045	384.306384	19.451554	9.315912	16.809744	38.879849	-40.402290	-45.000000	-44.591210	2242.950354	-4608.983018	26.836818	-5.930327	8.446354	29.522221	8.719933	-21.722798	
2.3300	-36.704509	-21.694277	27.011769	-114.083773	812.565011	10.749769	9.895173	-45.000000	41.962010	-45.000000	-41.272102	-3338.463439	-2265.768289	146.876808	-132.026882	2532.169596	384.401806	19.432670	8.976266	16.739783	38.923494	-40.497895	-45.000000	-44.405705	2243.287342	-4608.729029	26.801173	-6.193521	8.651699	28.639272	8.638574	-21.776767	
2.3400	-37.014022	-21.062852	26.226535	-119.063503	814.720820	10.730620	9.995001	-45.000000	42.110442	-45.000000	-40.965282	-3338.644573	-2265.516521	146.852587	-131.657872	2532.258417	384.598225	19.395813	8.646863	16.679426	38.965761	-40.574878	-45.000000	-44.200568	2243.618871	-4608.494215	26.758476	-6.413169	8.825714	27.850029	8.539526	-21.824224	
2.3500	-37.313012	-20.438358	25.457471	-124.082456	816.817009	10.706857	10.090342	-45.000000	42.239660	-45.000000	-40.728257	-3338.824448	-2265.276335	146.830879	-131.231375	2532.352563	384.902846	19.339913	8.321499	16.614106	39.003488	-40.624885	-45.000000	-43.985626	2243.933889	-4608.273289	26.719842	-6.579305	8.962477	27.175491	8.441659	-21.876339	
2.3600	-37.598972	-19.821382	24.712259	-129.111557	818.840959	10.680442	10.178580	-45.000000	42.349345	-45.000000	-40.550552	-3339.004283	-2265.050118	146.819651	-130.762761	2532.455423	385.325956	19.273496	8.015190	16.549096	39.032403	-40.667342	-45.000000	-43.787912	2244.234348	-4608.067885	26.674203	-6.721066	9.076936	26.626528	8.327436	-21.929099	
2.3700	-37.861678	-19.216222	24.016834	-134.078505	820.769423	10.645751	10.240070	-45.000000	42.422639	-45.000000	-40.469353	-3339.198058	-2264.828715	146.807583	-130.277988	2532.562452	385.894583	19.198810	7.722563	16.472761	39.054968	-40.685784	-45.000000	-43.621007	2244.512530	-4607.868421	26.633026	-6.816953	9.166135	26.203719	8.217127	-21.992202	
2.3800	-38.107818	-18.610671	23.359735	-138.969093	822.597840	10.608451	10.280468	-45.000000	42.462669	-45.000000	-40.423503	-3339.405882	-2264.625388	146.805758	-129.788579	2532.667753	386.648235	19.131014	7.475872	16.412029	39.059487	-40.706409	-45.000000	-43.496893	2244.778863	-4607.683558	26.586259	-6.933085	9.248409	25.910171	8.070894	-22.049347	
2.3900	-38.322476	-18.040025	22.776780	-143.771181	824.323642	10.572789	10.301759	-45.000000	42.470609	-45.000000	-40.507695	-3339.620944	-2264.427804	146.802171	-129.346195	2532.779001	387.639110	19.065304	7.244172	16.339266	39.056306	-40.693986	-45.000000	-43.433280	2245.017917	-4607.496614	26.543741	-6.991069	9.307904	25.722301	7.938122	-22.115754	
2.4000	-38.513968	-17.496823	22.243957	-148.521978	825.959823	10.549704	10.330357	-45.000000	42.456155	-45.000000	-40.674523	-3339.828981	-2264.248643	146.800993	-128.966046	2532.893714	388.925437	19.009097	7.037315	16.266201	39.031133	-40.670611	-45.000000	-43.444180	2245.246597	-4607.318504	26.509847	-7.032979	9.356923	25.624390	7.803557	-22.183543	
2.4100	-38.675676	-16.999614	21.777800	-153.214939	827.508240	10.538854	10.366052	-45.000000	42.416758	-45.000000	-40.982911	-3340.028179	-2264.074755	146.791276	-128.661142	2533.030912	390.583105	18.953838	6.824442	16.178052	38.989060	-40.617457	-45.000000	-43.538293	2245.452409	-4607.136462	26.488834	-6.996338	9.386392	25.589082	7.700608	-22.261070	
2.4200	-38.828540	-16.500193	21.322834	-157.844213	828.972895	10.539243	10.403993	-45.000000	42.361934	-45.000000	-41.263391	-3340.230293	-2263.929299	146.791577	-128.338304	2533.191115	392.647865	18.911704	6.637035	16.117918	38.917220	-40.590500	-45.000000	-43.680566	2245.664982	-4606.987274	26.459069	-7.047937	9.425263	25.614661	7.552952	-22.318255	
